<svg xmlns="http://www.w3.org/2000/svg" version="1.1" xmlns:xlink="http://www.w3.org/1999/xlink" xmlns:svgjs="http://svgjs.dev/svgjs" width="1500" height="1500" viewBox="0 0 1500 1500"><g transform="matrix(1,0,0,1,-0.21332335329316265,-0.21332335329350371)"><svg viewBox="0 0 334 334" data-background-color="#ffffff" preserveAspectRatio="xMidYMid meet" height="1500" width="1500" xmlns="http://www.w3.org/2000/svg" xmlns:xlink="http://www.w3.org/1999/xlink"><g id="tight-bounds" transform="matrix(1,0,0,1,0.04749999999998522,0.04750000000001364)"><svg viewBox="0 0 333.90454557049503 333.90454557049503" height="333.90454557049503" width="333.90454557049503"><g><svg></svg></g><g><svg viewBox="0 0 333.90454557049503 333.90454557049503" height="333.90454557049503" width="333.90454557049503"><g><path d="M0 166.952c0-92.205 74.747-166.952 166.952-166.952 92.205 0 166.952 74.747 166.953 166.952 0 92.205-74.747 166.952-166.953 166.953-92.205 0-166.952-74.747-166.952-166.953zM166.952 330.152c90.133 0 163.199-73.067 163.2-163.2 0-90.133-73.067-163.199-163.2-163.199-90.133 0-163.199 73.067-163.199 163.199 0 90.133 73.067 163.199 163.199 163.2z" data-fill-palette-color="tertiary" fill="#ff8600" stroke="transparent"></path><ellipse rx="160.27418187383762" ry="160.27418187383762" cx="166.95227278524752" cy="166.95227278524752" fill="#ff8600" stroke="transparent" stroke-width="0" fill-opacity="1" data-fill-palette-color="tertiary"></ellipse></g><g transform="matrix(1,0,0,1,74.68048248413189,71.17305217166896)"><svg viewBox="0 0 184.54358060223126 191.55844122715712" height="191.55844122715712" width="184.54358060223126"><g><svg viewBox="0 0 184.54358060223126 191.55844122715712" height="191.55844122715712" width="184.54358060223126"><g><svg viewBox="0 0 213.1584412271571 221.26100838964166" height="191.55844122715712" width="184.54358060223126"><g transform="matrix(1,0,0,1,0,133.136151089584)"><svg viewBox="0 0 213.1584412271571 88.12485730005767" height="88.12485730005767" width="213.1584412271571"><g id="textblocktransform"><svg viewBox="0 0 213.1584412271571 88.12485730005767" height="88.12485730005767" width="213.1584412271571" id="textblock"><g><svg viewBox="0 0 213.1584412271571 48.06756426279782" height="48.06756426279782" width="213.1584412271571"><g transform="matrix(1,0,0,1,0,0)"><svg width="213.1584412271571" viewBox="1.4 -33.48 150.76 34.01" height="48.06756426279782" data-palette-color="#000000"><path d="M13.63 0L7.4 0 1.4-24.4 5.58-24.4 10.38-2.95 10.85-2.95 15.85-23.75 21.58-23.75 26.58-2.95 27.03-2.95 31.88-24.4 36.02-24.4 30.03 0 23.83 0 19.7-17.35 18.9-20.83 18.53-20.83 17.75-17.35 13.63 0ZM58.45 0L54.42 0 54.6-5.93 54.45-6.55 54.45-14.33 54.47-15.75Q54.47-18.73 52.96-20.15 51.45-21.58 48.17-21.58L48.17-21.58Q45.55-21.58 43.36-20.83 41.17-20.08 39.47-19.07L39.47-19.07 39.85-22.53Q40.8-23.1 42.11-23.66 43.42-24.23 45.11-24.6 46.8-24.98 48.82-24.98L48.82-24.98Q51.45-24.98 53.29-24.34 55.12-23.7 56.26-22.5 57.4-21.3 57.92-19.6 58.45-17.9 58.45-15.8L58.45-15.8 58.45 0ZM46.02 0.53L46.02 0.53Q42.4 0.53 40.46-1.24 38.52-3 38.52-6.28L38.52-6.28 38.52-7Q38.52-10.38 40.61-12.04 42.7-13.7 47.25-14.35L47.25-14.35 54.97-15.45 55.2-12.5 47.75-11.43Q44.95-11.03 43.75-10.06 42.55-9.1 42.55-7.23L42.55-7.23 42.55-6.83Q42.55-4.9 43.74-3.88 44.92-2.85 47.3-2.85L47.3-2.85Q49.4-2.85 50.9-3.58 52.4-4.3 53.32-5.53 54.25-6.75 54.57-8.25L54.57-8.25 55.2-5.5 54.42-5.5Q54.07-3.9 53.11-2.53 52.15-1.15 50.42-0.31 48.7 0.53 46.02 0.53ZM68.8 0L64.77 0 64.77-33.13 68.8-33.13 68.8 0ZM80.09 0L76.07 0 76.07-33.13 80.09-33.13 80.09 0ZM97.09 0L90.87 0 84.87-24.4 89.04-24.4 93.84-2.95 94.32-2.95 99.32-23.75 105.04-23.75 110.04-2.95 110.49-2.95 115.34-24.4 119.49-24.4 113.49 0 107.29 0 103.17-17.35 102.37-20.83 101.99-20.83 101.22-17.35 97.09 0ZM128.26 0L124.21 0 124.21-24.4 128.26-24.4 128.26 0ZM126.24-28.4L126.24-28.4Q124.99-28.4 124.38-29.06 123.76-29.73 123.76-30.88L123.76-30.88 123.76-31Q123.76-32.18 124.38-32.83 124.99-33.48 126.24-33.48L126.24-33.48Q127.49-33.48 128.11-32.83 128.74-32.18 128.74-31L128.74-31 128.74-30.88Q128.74-29.7 128.11-29.05 127.49-28.4 126.24-28.4ZM138.49-3.35L152.16-3.35 152.16 0 133.64 0 133.64-3.05 147.21-21.08 133.69-21.08 133.69-24.4 152.06-24.4 152.06-21.38 138.49-3.35Z" opacity="1" transform="matrix(1,0,0,1,0,0)" fill="#000000" class="wordmark-text-0" data-fill-palette-color="quaternary" id="text-0"></path></svg></g></svg></g><g transform="matrix(1,0,0,1,0,59.41516256370208)"><svg viewBox="0 0 213.1584412271571 28.709694736355594" height="28.709694736355594" width="213.1584412271571"><g transform="matrix(1,0,0,1,0,0)"><svg width="213.1584412271571" viewBox="4 -36.25 361.95 48.75" height="28.709694736355594" data-palette-color="#000000"><path d="M7.4 0L4 0 4-35 11.25-35Q17.4-35 20.15-33.05L20.15-33.05Q23.35-30.8 23.35-25.35L23.35-25.35Q23.35-16.25 16.35-14.25L16.35-14.25Q14.1-13.6 11.25-13.6L11.25-13.6 7.4-13.6 7.4 0ZM11-32.25L7.4-32.25 7.4-16.35 11-16.35Q15.5-16.35 17.73-18.32 19.95-20.3 19.95-24.78 19.95-29.25 17.73-30.75 15.5-32.25 11-32.25L11-32.25ZM27.35-19.9L26.45-22.3Q31.9-25 36-25.15L36-25.15Q39.25-25.15 41.03-24.33 42.8-23.5 43.9-22.03 45-20.55 45-17.9L45-17.9 45 0 41.75 0 41.75-1.9Q34.9 0.2 32.95 0.2L32.95 0.2Q32.85 0.2 32.8 0.2L32.8 0.2Q28.3 0.2 26.65-2.55L26.65-2.55Q26.05-3.55 25.98-4.5 25.9-5.45 25.9-6.1L25.9-6.1Q25.9-7.9 27.3-9.33 28.7-10.75 30.65-11.25L30.65-11.25Q33.95-12.1 41.75-12.75L41.75-12.75 41.75-16.8Q41.75-22.25 36.05-22.25L36.05-22.25Q32.05-22.25 27.35-19.9L27.35-19.9ZM28.95-5.7L28.95-5.7Q28.95-2.1 33.9-2.1L33.9-2.1Q37.85-2.1 41.75-3.8L41.75-3.8 41.75-10.95Q33.95-9.85 32.1-9.25L32.1-9.25Q28.95-8.25 28.95-5.7ZM51.05-25L54.3-25.25 54.3 0 51.05 0 51.05-25ZM52.55-31.7Q51.55-31.7 51.03-32.35 50.5-33 50.5-34 50.5-35 51.08-35.63 51.65-36.25 52.65-36.25 53.65-36.25 54.28-35.63 54.9-35 54.9-33.9 54.9-32.8 54.23-32.25 53.55-31.7 52.55-31.7ZM64.15-25.25L64.15-22.25Q67.9-25 71.25-25.15L71.25-25.15Q74.3-25.15 75.95-24.4 77.6-23.65 78.68-22.28 79.75-20.9 79.75-18.4L79.75-18.4 79.75 0 76.5 0 76.5-17.55Q76.5-19.4 75.7-20.4L75.7-20.4Q74.1-22.25 70.8-22.25L70.8-22.25Q67.65-22.1 64.15-20.2L64.15-20.2 64.15 0 60.9 0 60.9-25 64.15-25.25ZM96.6-3.6L97.2-0.9Q96.3 0 93.95 0L93.95 0Q90.65 0 89.5-1.7L89.5-1.7Q87.55-3.55 87.55-6.7L87.55-6.7 87.55-22.1 84.75-22.1 85.2-25 87.55-25 87.55-29.95 90.8-30.25 90.8-25 96.6-25 96.6-22.1 90.8-22.1 90.8-5.9Q90.8-3 93.8-3L93.8-3Q95.1-3 96.6-3.6L96.6-3.6ZM102.8-25L106.05-25.25 106.05 0 102.8 0 102.8-25ZM104.3-31.7Q103.3-31.7 102.78-32.35 102.25-33 102.25-34 102.25-35 102.83-35.63 103.4-36.25 104.4-36.25 105.4-36.25 106.03-35.63 106.65-35 106.65-33.9 106.65-32.8 105.98-32.25 105.3-31.7 104.3-31.7ZM115.9-25.25L115.9-22.25Q119.65-25 123-25.15L123-25.15Q126.05-25.15 127.7-24.4 129.35-23.65 130.43-22.28 131.5-20.9 131.5-18.4L131.5-18.4 131.5 0 128.25 0 128.25-17.55Q128.25-19.4 127.45-20.4L127.45-20.4Q125.85-22.25 122.55-22.25L122.55-22.25Q119.4-22.1 115.9-20.2L115.9-20.2 115.9 0 112.65 0 112.65-25 115.9-25.25ZM141.1-9.65L141.1-9.65Q137.4-11.5 137.4-16.6L137.4-16.6Q137.4-20.8 140.3-23 143.2-25.2 147.7-25.2L147.7-25.2Q148.9-25.2 150.65-24.95L150.65-24.95 160.05-25.2 159.95-23.3 154.5-23.3Q157.25-21.25 157.25-17.13 157.25-13 154.5-10.78 151.75-8.55 147.4-8.55L147.4-8.55Q144.6-8.55 142.75-9.05L142.75-9.05Q141.8-8.15 141.8-6.95L141.8-6.95Q141.8-5.25 143.68-4.5 145.55-3.75 148.1-3.4L148.1-3.4Q153.75-2.65 156.25-1.3L156.25-1.3Q159.85 0.7 159.85 4.85 159.85 9 155.9 11L155.9 11Q152.9 12.5 148.65 12.5 144.4 12.5 142.1 11.85L142.1 11.85Q136.05 10.1 136.05 5.35 136.05 0.6 141.4-2.7L141.4-2.7Q139.3-4.25 139.3-6.3 139.3-8.35 141.1-9.65ZM156.6 4.8L156.6 4.8Q156.6 1.55 152.3 0.3L152.3 0.3Q151.1-0.05 148-0.55 144.9-1.05 143.15-1.75L143.15-1.75Q139.3 1.45 139.3 4.45L139.3 4.45Q139.3 5.75 139.7 6.6 140.1 7.45 141.1 8.1L141.1 8.1Q143.3 9.6 147.8 9.6L147.8 9.6Q153.7 9.6 155.8 7.1L155.8 7.1Q156.6 6.15 156.6 4.8ZM153.85-17.25L153.85-17.25Q153.85-22.55 147.55-22.55L147.55-22.55Q144.55-22.55 142.6-21.18 140.65-19.8 140.65-16.98 140.65-14.15 142.05-12.68 143.45-11.2 146.78-11.2 150.1-11.2 151.98-12.8 153.85-14.4 153.85-17.25ZM197.3-16.4L197.05-21.65Q195-22.3 192.85-22.3L192.85-22.3Q188.5-22.3 185.88-19.5 183.25-16.7 183.25-11.6L183.25-11.6Q183.25-2.7 191.5-2.7L191.5-2.7Q194.8-2.7 198.3-3.8L198.3-3.8Q199-4 199.15-4.1L199.15-4.1 199.95-1.4Q198.2-0.35 193.6 0.1L193.6 0.1Q192.3 0.2 190.85 0.2L190.85 0.2Q186.6 0.2 183.85-1.9L183.85-1.9Q180-4.8 180-11.45 180-18.1 183.58-21.68 187.15-25.25 192.8-25.25L192.8-25.25Q194.6-25.25 196.63-24.78 198.65-24.3 199.75-23.3L199.75-23.3 199.75-16.75 197.3-16.4ZM204.1-6.4L204.1-6.4Q203.2-8.8 203.2-12L203.2-12Q203.2-18.15 206.65-21.68 210.1-25.2 215.3-25.2L215.3-25.2Q223.45-25.2 226-18.6L226-18.6Q226.95-16.2 226.95-13L226.95-13Q226.95-6.85 223.5-3.33 220.05 0.2 214.85 0.2L214.85 0.2Q206.7 0.2 204.1-6.4ZM206.45-12.35Q206.45-7.75 208.83-5.23 211.2-2.7 214.95-2.7 218.7-2.7 221.2-5.38 223.7-8.05 223.7-12.65 223.7-17.25 221.35-19.78 219-22.3 215.23-22.3 211.45-22.3 208.95-19.63 206.45-16.95 206.45-12.35ZM240.3-22.25L240.3-22.25Q237.5-22.1 234.25-20.4L234.25-20.4 234.25 0 231 0 231-25 234.25-25.25 234.25-22.45Q237.6-25 240.75-25.15L240.75-25.15Q246.05-25.15 248.05-22.5L248.05-22.5Q251.85-25 255.4-25.15L255.4-25.15Q258.45-25.15 260.1-24.4 261.75-23.65 262.83-22.28 263.9-20.9 263.9-18.4L263.9-18.4 263.9 0 260.65 0 260.65-17.55Q260.65-19.4 259.8-20.4L259.8-20.4Q258.25-22.25 255.4-22.25L255.4-22.25Q252.4-22.25 249-20.45L249-20.45Q249.25-19.45 249.25-18.4L249.25-18.4 249.25 0 246 0 246-17.55Q246-19.4 245.2-20.4L245.2-20.4Q243.6-22.25 240.3-22.25ZM287.2-3.5Q285.55-1.85 283.53-1.03 281.5-0.2 280.05-0.1 278.6 0 277.2 0 275.8 0 274.15-0.25L274.15-0.25 274.15 12.25 270.9 12.5 270.9-23.7Q272-24.05 274.28-24.75 276.55-25.45 279.13-25.45 281.7-25.45 283.58-25.03 285.45-24.6 287.05-23.4L287.05-23.4Q290.8-20.5 290.8-13.8 290.8-7.1 287.2-3.5L287.2-3.5ZM274.15-21.7L274.15-2.8Q275.65-2.45 277.35-2.45L277.35-2.45Q282.25-2.45 284.9-5.35 287.55-8.25 287.55-13.5 287.55-18.75 284.85-21L284.85-21Q282.95-22.55 279.98-22.55 277-22.55 274.15-21.7L274.15-21.7ZM295.65-19.9L294.75-22.3Q300.2-25 304.3-25.15L304.3-25.15Q307.55-25.15 309.33-24.33 311.1-23.5 312.2-22.03 313.3-20.55 313.3-17.9L313.3-17.9 313.3 0 310.05 0 310.05-1.9Q303.2 0.2 301.25 0.2L301.25 0.2Q301.15 0.2 301.1 0.2L301.1 0.2Q296.6 0.2 294.95-2.55L294.95-2.55Q294.35-3.55 294.28-4.5 294.2-5.45 294.2-6.1L294.2-6.1Q294.2-7.9 295.6-9.33 297-10.75 298.95-11.25L298.95-11.25Q302.25-12.1 310.05-12.75L310.05-12.75 310.05-16.8Q310.05-22.25 304.35-22.25L304.35-22.25Q300.35-22.25 295.65-19.9L295.65-19.9ZM297.25-5.7L297.25-5.7Q297.25-2.1 302.2-2.1L302.2-2.1Q306.15-2.1 310.05-3.8L310.05-3.8 310.05-10.95Q302.25-9.85 300.4-9.25L300.4-9.25Q297.25-8.25 297.25-5.7ZM321.55-25.25L321.55-22.25Q325.3-25 328.65-25.15L328.65-25.15Q331.7-25.15 333.35-24.4 335-23.65 336.08-22.28 337.15-20.9 337.15-18.4L337.15-18.4 337.15 0 333.9 0 333.9-17.55Q333.9-19.4 333.1-20.4L333.1-20.4Q331.5-22.25 328.2-22.25L328.2-22.25Q325.05-22.1 321.55-20.2L321.55-20.2 321.55 0 318.3 0 318.3-25 321.55-25.25ZM350.65 0L341.75-25 345.4-25.25 352.85-2.35 362.45-25 365.95-25 349.35 12.5 346.3 12.5 351.8 0 350.65 0Z" opacity="1" transform="matrix(1,0,0,1,0,0)" fill="#000000" class="slogan-text-1" data-fill-palette-color="quaternary" id="text-1"></path></svg></g></svg></g></svg></g></svg></g><g transform="matrix(1,0,0,1,70.50478138420016,0)"><svg viewBox="0 0 72.1488784587568 121.78855278867972" height="121.78855278867972" width="72.1488784587568"><g><svg xmlns="http://www.w3.org/2000/svg" xmlns:xlink="http://www.w3.org/1999/xlink" version="1.1" x="0" y="0" viewBox="-754.026 -695.193 443.79699999999997 749.137" enable-background="new -1088.859 -890.881 1175.765 1121.776" xml:space="preserve" height="121.78855278867972" width="72.1488784587568" class="icon-icon-0" data-fill-palette-color="quaternary" id="icon-0"><g fill="#000000" data-fill-palette-color="quaternary"><polygon points="-430.849,-507.586 -607.656,-412.933 -607.656,-311.485 -430.849,-411.589  " fill="#000000" data-fill-palette-color="quaternary"></polygon><polygon points="-310.229,-572.157 -403.212,-522.38 -403.212,-427.235 -310.229,-479.879  " fill="#000000" data-fill-palette-color="quaternary"></polygon><polygon points="-639.096,-396.103 -754.026,-334.575 -754.026,-228.616 -639.096,-293.686  " fill="#000000" data-fill-palette-color="quaternary"></polygon><polygon points="-310.229,-695.193 -502.157,-600.337 -502.157,-502.142 -310.229,-602.917  " fill="#000000" data-fill-palette-color="quaternary"></polygon><polygon points="-531.604,-585.784 -754.026,-475.855 -754.026,-369.896 -531.604,-486.682  " fill="#000000" data-fill-palette-color="quaternary"></polygon><polygon points="-430.849,-251.595 -607.656,-142.407 -607.656,-40.959 -430.849,-155.599  " fill="#000000" data-fill-palette-color="quaternary"></polygon><polygon points="-310.229,-326.084 -403.212,-268.662 -403.212,-173.518 -310.229,-233.806  " fill="#000000" data-fill-palette-color="quaternary"></polygon><polygon points="-639.096,-122.992 -754.026,-52.016 -754.026,53.944 -639.096,-20.575  " fill="#000000" data-fill-palette-color="quaternary"></polygon><polygon points="-310.229,-449.12 -502.157,-338.484 -502.157,-240.29 -310.229,-356.843  " fill="#000000" data-fill-palette-color="quaternary"></polygon><polygon points="-531.604,-321.51 -754.026,-193.295 -754.026,-87.336 -531.604,-222.408  " fill="#000000" data-fill-palette-color="quaternary"></polygon></g></svg></g></svg></g><g></g></svg></g></svg></g></svg></g></svg></g><defs></defs></svg><rect width="333.90454557049503" height="333.90454557049503" fill="none" stroke="none" visibility="hidden"></rect></g></svg></g></svg>